# xmcd CD database file
#
# Track frame offsets:
#	150
#	16233
#	35003
#	57274
#	77675
#	90733
#	119916
#	148642
#	163055
#	176633
#	194245
#	215104
#	232366
#	252856
#	266192
#	284286
#	291100
#
# Disc length: 3963 seconds
#
# Revision: 1
# Processed by: cddbd v1.5.2PL0 Copyright (c) Steve Scherf et al.
# Submitted via: CDex 1.70beta2
#
DISCID=160f7911
DTITLE=The Jim Martinez Trio - Three Equals One
DYEAR=2006
DGENRE=Jazz
TTITLE0=There Will Never Be Another You
TTITLE1=Louisiana
TTITLE2=Darn That Dream [feat. Gregory Tardy]
TTITLE3=St. Stevens
TTITLE4=Pick Yourself Up
TTITLE5=Autumn Leaves
TTITLE6=Intimacy Of The Blues
TTITLE7=But Beautiful
TTITLE8=Gertrude's Bounce [feat. Gregory Tardy]
TTITLE9=You Almost Made Spring
TTITLE10=But Not For Me
TTITLE11=Days Of Wine And Roses
TTITLE12=Georgia
TTITLE13=Hamp's Boogie Woogie
TTITLE14=We'll Be Together Again
TTITLE15=Frankie Laine Comments
TTITLE16=Benny Hollman Comments
EXTD=YEAR: 2006
EXTT0=
EXTT1=
EXTT2=
EXTT3=
EXTT4=
EXTT5=
EXTT6=
EXTT7=
EXTT8=
EXTT9=
EXTT10=
EXTT11=
EXTT12=
EXTT13=
EXTT14=
EXTT15=
EXTT16=
PLAYORDER=
